<?xml version="1.0" encoding="utf-8"?>
<!-- Generator: Adobe Illustrator 16.0.0, SVG Export Plug-In . SVG Version: 6.00 Build 0)  -->
<!DOCTYPE svg PUBLIC "-//W3C//DTD SVG 1.1//EN" "http://www.w3.org/Graphics/SVG/1.1/DTD/svg11.dtd">
<svg version="1.1" id="圖層_1" xmlns="http://www.w3.org/2000/svg" xmlns:xlink="http://www.w3.org/1999/xlink" x="0px" y="0px"
	 width="1059.297px" height="329.088px" viewBox="0 0 1059.297 329.088" enable-background="new 0 0 1059.297 329.088"
	 xml:space="preserve">
<g>
	<path fill-rule="evenodd" clip-rule="evenodd" fill="#FFFFFF" d="M155.838,281.968c-9.266,8.522-16.394,15.646-24.108,22.061
		c-18.006,14.975-37.922,25.536-62.224,25.043c-49.941-1.014-82.67-47.771-64.369-94.212c11.967-30.37,26.574-59.737,40.815-89.159
		c17.375-35.892,35.546-71.402,53.496-107.016c7.975-15.822,18.363-29.398,35.981-35.45c25.996-8.926,52.602,0.896,66.98,25.99
		c11.752,20.514,22.574,41.601,32.951,62.853c21.925,44.912,43.861,89.836,64.713,135.251c18.394,40.061,0.936,82.989-38.355,97.124
		c-23.096,8.309-45.494,5.008-65.856-7.499c-12.782-7.852-23.916-18.422-35.587-28.017
		C158.314,287.324,157.379,284.465,155.838,281.968z M70.84,311.277c5.932-1.22,12.019-1.945,17.767-3.751
		c17.793-5.595,31.43-17.441,44.232-30.405c8.678-8.788,8.507-8.668,1.368-18.348c-17.154-23.255-32.506-47.286-35.509-77.186
		c-2.575-25.651,10.889-47.951,35.315-57.083c23.58-8.815,52.008-0.58,65.604,19.277c13.518,19.745,11.347,40.888,4.227,61.951
		c-7.06,20.886-19.096,39.088-32.64,56.325c-2.284,2.906-5.06,5.521-1.257,9.575c13.013,13.873,26.886,26.657,44.756,33.957
		c15.748,6.431,31.695,6.893,46.979-1.555c25.375-14.026,33.71-42.311,20.146-71.041c-22.243-47.108-44.917-94.019-67.877-140.782
		c-9.246-18.832-18.806-37.633-29.871-55.423c-14.667-23.581-43.159-23.893-59.729-1.569c-3.467,4.668-6.371,9.823-9.031,15.012
		c-13.333,26.02-26.95,51.906-39.612,78.251C57.75,165.84,39.45,203.096,23.341,241.259C8.906,275.464,33.67,310.196,70.84,311.277z
		 M153.955,253.034c16.603-21.446,30.573-42.297,35.554-67.742c1.972-10.072,1.103-20.119-4.618-29.188
		c-8.724-13.827-27.063-19.809-43.596-14.205c-16.305,5.528-25.548,20.28-23.314,39
		C121.292,208.652,136.746,230.475,153.955,253.034z"/>
	<path fill-rule="evenodd" clip-rule="evenodd" fill="#FFFFFF" d="M693.207,233.591c0.229,8.713-4.801,9.41-11.038,9.025
		c-5.817-0.359-11.674-0.077-18.521-0.077c0-60.43,0-120.376,0-181.563c7.955,0,16.38-0.293,24.74,0.309
		c1.284,0.094,3.199,4.292,3.249,6.626c0.379,17.556,0.345,35.122,0.494,52.683c0.022,2.574,0.34,5.144,0.643,9.461
		c17.321-14.265,35.679-15.161,54.832-8.761c13.347,4.458,23.664,12.926,31.1,24.903c16.037,25.833,12.052,61.831-9.16,82.484
		C749.18,248.512,720.219,250.731,693.207,233.591z M692.489,181.007c0.014,0,0.028,0,0.041,0c0,3.985-0.017,7.972,0.003,11.957
		c0.07,13.578,5.756,21.075,18.906,24.132c3.816,0.887,7.926,0.886,11.882,0.742c15.471-0.559,27.155-7.39,32.731-22.157
		c5.596-14.824,3.653-28.86-7.691-40.597c-9.871-10.213-27.527-13.476-40.735-8.059c-12.142,4.982-15.176,9.56-15.137,22.824
		C692.499,173.567,692.489,177.287,692.489,181.007z"/>
	<path fill-rule="evenodd" clip-rule="evenodd" fill="#FFFFFF" d="M963.876,232.567c0.017,8.51-4.314,10.059-10.914,9.43
		c-5.772-0.55-11.639-0.115-18.642-0.115c0-60.419,0-120.362,0-181.492c7.962,0,16.394-0.301,24.762,0.304
		c1.348,0.098,3.396,4.209,3.438,6.496c0.311,17.031,0.196,34.067,0.214,51.103c0.003,3.136,0,6.274,0,11.735
		c19.291-15.984,39.177-16.198,59.565-8.01c12.473,5.01,21.871,13.979,28.524,25.708c14.599,25.731,9.917,60.368-10.845,80.343
		C1019.372,247.899,991.162,249.878,963.876,232.567z M991.393,218.408c17.176-0.938,30.992-9.864,35.908-23.973
		c5.801-16.646,1.376-33.396-11.366-43.027c-13.01-9.834-31.071-10.222-44.756-1.145c-5.737,3.805-8.92,8.426-8.426,15.795
		c0.619,9.248,0.945,18.622,0.14,27.832c-0.906,10.364,4.583,15.967,12.715,19.73C980.55,215.908,986.112,216.857,991.393,218.408z"
		/>
	<path fill-rule="evenodd" clip-rule="evenodd" fill="#FFFFFF" d="M471.274,129.806c-0.325-8,4.308-8.5,9.995-8.493
		c20.445,0.028,20.411-0.097,20.423,20.527c0.019,30.594-0.128,61.189,0.304,91.777c0.103,7.353-2.135,10.219-9.411,9.378
		c-3.149-0.365-6.381-0.154-9.569-0.025c-5.863,0.237-11.696,0.571-11.302-9.655c-15.034,13.713-31.238,15.509-48.305,11.623
		c-13.913-3.166-25.434-10.656-34.276-21.938c-18.345-23.403-17.698-60.88,1.328-82.977
		C410.94,116.238,439.572,112.298,471.274,129.806z M472.233,181.885c0-5.323,0.742-10.787-0.23-15.926
		c-0.814-4.302-2.627-9.363-5.742-12.118c-13.566-12.002-35.092-11.328-49.028,0.753c-12.735,11.042-15.457,33.372-5.886,48.293
		c9.077,14.15,29.953,20.216,46.158,13.412c11.662-4.896,14.747-9.587,14.749-22.438
		C472.255,189.871,472.253,185.878,472.233,181.885z"/>
	<path fill-rule="evenodd" clip-rule="evenodd" fill="#FFFFFF" d="M805.135,120.404c6.592,0,14.042-0.639,21.271,0.353
		c2.483,0.34,4.407,4.756,6.092,6.73c7.936-3.104,15.93-7.663,24.485-9.306c24.413-4.69,57.192,6.613,58.034,44.805
		c0.54,24.454,0.321,48.924,0.529,73.387c0.034,4.054-1.716,5.436-5.701,5.772c-23.499,1.987-23.499,2.07-23.552-21.269
		c-0.034-14.892-0.031-29.786-0.083-44.678c-0.009-2.655,0.011-5.339-0.363-7.957c-1.463-10.244-3.403-20.367-15.387-23.676
		c-13.2-3.646-24.856-0.217-34.414,9.23c-2.037,2.014-2.552,6.276-2.572,9.509c-0.148,23.135,0.013,46.272,0.073,69.41
		c0.008,2.843,0.002,5.685,0.002,9.495c-9.123,0-17.301,0.22-25.445-0.199c-1.504-0.078-4.12-2.739-4.126-4.219
		c-0.175-38.541-0.071-77.083,0.002-115.625C803.98,121.956,804.244,121.744,805.135,120.404z"/>
	<path fill-rule="evenodd" clip-rule="evenodd" fill="#FFFFFF" d="M604.646,242.161c-9.974,0-19.148,0-29.109,0
		c-0.198-2.736-0.538-5.287-0.546-7.839c-0.109-34.568-0.006-69.137-0.381-103.7c-0.078-7.087,1.766-10.431,9.287-9.552
		c3.67,0.429,7.447,0.264,11.152,0.016c5.669-0.377,10.307,0.407,10.193,8.93c10.146-7.75,20.073-12.539,32.149-12.179
		c7.383,0.22,10.709,2.254,9.821,10.103c-0.614,5.422-0.119,10.967-0.119,17.28c-12.825-2.491-23.895-1.667-34.284,4.469
		c-5.856,3.459-8.415,7.795-8.312,14.85C604.874,190.04,604.646,215.548,604.646,242.161z"/>
	<path fill-rule="evenodd" clip-rule="evenodd" fill="#FFFFFF" d="M552.928,121.324c0,40.452,0,80.218,0,121.376
		c-8.438,0-16.839,0.352-25.155-0.322c-1.514-0.123-3.785-4.421-3.84-6.834c-0.404-17.55-0.34-35.111-0.401-52.669
		c-0.061-17.824,0.056-35.649-0.226-53.469c-0.099-6.15,1.987-8.638,8.346-8.191C538.49,121.696,545.389,121.324,552.928,121.324z"
		/>
	<path fill-rule="evenodd" clip-rule="evenodd" fill="#FFFFFF" d="M538.074,61.125c11.203,0.013,20.625,9.14,20.655,20.013
		c0.031,10.868-9.527,20.393-20.398,20.329c-11.452-0.068-20.824-9.575-20.593-20.885C517.95,70.206,527.452,61.114,538.074,61.125z
		"/>
</g>
</svg>
